<svg width="495" height="48" viewBox="0 0 6085 590" fill="none" xmlns="http://www.w3.org/2000/svg">
<path d="M365.022 291.523C365.022 273.864 363.673 259.271 360.976 247.744C358.523 235.972 352.514 226.652 342.949 219.785C333.384 212.672 319.159 207.767 300.274 205.069C281.635 202.126 256.128 200.655 223.754 200.655C192.116 200.655 166.364 203.475 146.498 209.116C126.632 214.512 111.058 222.237 99.7763 232.293C88.4945 242.348 80.7689 254.366 76.5995 268.346C72.6754 282.325 70.7133 297.899 70.7133 315.067V577.37H0.0791779V153.565H70.7133V220.888C73.1659 213.285 77.7032 204.947 84.3251 195.872C90.9471 186.552 101.003 177.968 114.492 170.12C127.981 162.027 145.394 155.282 166.732 149.886C188.314 144.491 215.17 141.793 247.299 141.793C284.087 141.793 314.009 145.104 337.063 151.726C360.117 158.102 378.021 167.668 390.774 180.421C403.773 192.929 412.48 208.503 416.894 227.142C421.554 245.782 423.884 267.242 423.884 291.523H365.022ZM965.413 259.516C977.185 259.516 987.486 258.535 996.315 256.573C1005.14 254.611 1012.38 250.81 1018.02 245.169C1023.91 239.283 1028.32 230.944 1031.26 220.153C1034.21 209.361 1035.68 195.136 1035.68 177.478C1035.68 157.857 1034.21 141.302 1031.26 127.813C1028.32 114.324 1023.42 103.165 1016.55 94.3356C1009.68 85.5063 1000.36 78.7617 988.589 74.1018C977.062 69.4419 962.592 66.0083 945.179 63.801C927.766 61.5937 907.164 60.3674 883.374 60.1221C859.584 59.6316 831.992 59.3864 800.6 59.3864C757.434 59.3864 721.013 59.9995 691.337 61.2258C661.906 62.2068 637.503 64.2915 618.128 67.4799C598.998 70.423 584.282 74.5923 573.982 79.988C563.681 85.3837 556.078 92.4961 551.173 101.325C546.513 109.909 543.692 120.455 542.711 132.964C541.976 145.472 541.608 160.187 541.608 177.11H470.973C470.973 147.434 474.162 122.418 480.539 102.061C487.16 81.7048 496.726 65.0273 509.234 52.0286C521.987 38.7847 537.684 28.7292 556.323 21.862C574.963 14.7495 596.423 9.72173 620.703 6.77864C645.229 3.5903 672.452 1.75087 702.374 1.26035C732.541 0.769836 765.282 0.524578 800.6 0.524578C835.917 0.524578 867.923 1.13772 896.618 2.36401C925.558 3.34504 951.31 5.79761 973.874 9.72173C996.683 13.6459 1016.43 19.4094 1033.1 27.0124C1049.78 34.6154 1063.52 45.0388 1074.31 58.2827C1085.34 71.2814 1093.44 87.4683 1098.59 106.844C1103.98 126.219 1106.68 149.641 1106.68 177.11C1106.68 194.768 1105.45 209.729 1103 221.992C1100.79 234.255 1097.24 244.678 1092.33 253.262C1087.67 261.601 1081.66 268.591 1074.31 274.232C1066.95 279.628 1058.12 284.533 1047.82 288.947C1058.12 293.362 1066.95 299.003 1074.31 305.87C1081.66 312.737 1087.67 321.199 1092.33 331.254C1097.24 341.065 1100.79 352.714 1103 366.203C1105.45 379.447 1106.68 394.899 1106.68 412.557C1106.68 440.026 1103.98 463.448 1098.59 482.823C1093.44 502.199 1085.34 518.508 1074.31 531.752C1063.52 544.751 1049.78 555.052 1033.1 562.655C1016.43 570.258 996.683 576.021 973.874 579.945C951.31 583.869 925.558 586.322 896.618 587.303C867.923 588.529 835.917 589.142 800.6 589.142C765.282 589.142 732.541 588.897 702.374 588.407C672.452 587.916 645.229 585.954 620.703 582.521C596.423 579.087 574.963 573.691 556.323 566.334C537.684 558.731 521.987 547.939 509.234 533.96C496.726 519.98 487.16 502.199 480.539 480.616C474.162 459.033 470.973 432.423 470.973 400.785H541.608C541.608 419.424 542.098 435.611 543.079 449.346C544.06 462.835 546.881 474.362 551.541 483.927C556.2 493.492 563.681 501.34 573.982 507.472C584.282 513.358 598.998 518.018 618.128 521.451C637.503 524.885 661.906 527.215 691.337 528.441C721.013 529.668 757.434 530.281 800.6 530.281C831.992 530.281 859.584 530.158 883.374 529.913C907.164 529.422 927.766 528.073 945.179 525.866C962.592 523.659 977.062 520.225 988.589 515.565C1000.36 510.905 1009.68 504.161 1016.55 495.331C1023.42 486.502 1028.32 475.343 1031.26 461.854C1034.21 448.365 1035.68 431.81 1035.68 412.189C1035.68 391.588 1034.21 375.155 1031.26 362.892C1028.32 350.384 1023.91 340.819 1018.02 334.197C1012.38 327.575 1005.14 323.283 996.315 321.321C987.486 319.359 977.185 318.378 965.413 318.378H706.421V259.516H965.413ZM1448.08 585.464C1400.99 585.464 1361.01 582.03 1328.15 575.163C1295.28 568.296 1268.55 556.523 1247.95 539.846C1227.35 523.168 1212.39 500.727 1203.07 472.523C1193.75 444.318 1189.09 408.878 1189.09 366.203C1189.09 322.057 1193.75 285.514 1203.07 256.573C1212.39 227.633 1227.35 204.701 1247.95 187.779C1268.55 170.856 1295.28 158.961 1328.15 152.094C1361.01 145.226 1400.99 141.793 1448.08 141.793C1481.43 141.793 1509.39 143.51 1531.96 146.943C1554.52 150.377 1572.92 154.669 1587.14 159.819C1601.61 164.97 1612.52 170.611 1619.88 176.742C1627.49 182.628 1633 188.147 1636.44 193.297V12.2969H1707.07V577.37H1636.44V514.462C1636.44 514.462 1630.55 521.451 1618.78 535.431C1608.48 545.487 1597.07 553.58 1584.56 559.712C1572.06 565.843 1554.52 571.729 1531.96 577.37C1509.39 582.766 1481.43 585.464 1448.08 585.464ZM1448.08 530.281C1471.62 530.281 1492.59 529.79 1510.99 528.809C1529.38 527.583 1545.57 525.13 1559.55 521.451C1573.53 517.773 1585.3 512.377 1594.87 505.264C1604.68 497.907 1612.65 488.219 1618.78 476.201C1624.91 464.184 1629.32 449.346 1632.02 431.687C1634.97 413.783 1636.44 392.323 1636.44 367.307C1636.44 341.31 1634.97 319.237 1632.02 301.088C1629.32 282.693 1624.91 267.365 1618.78 255.102C1612.65 242.594 1604.68 232.783 1594.87 225.671C1585.3 218.558 1573.53 213.163 1559.55 209.484C1545.57 205.56 1529.38 203.107 1510.99 202.126C1492.59 201.145 1471.62 200.655 1448.08 200.655C1420.61 200.655 1396.82 201.513 1376.71 203.23C1356.84 204.947 1339.92 208.012 1325.94 212.427C1311.96 216.842 1300.56 222.973 1291.73 230.821C1283.14 238.67 1276.4 248.725 1271.49 260.988C1266.83 273.251 1263.65 288.089 1261.93 305.502C1260.46 322.67 1259.72 342.904 1259.72 366.203C1259.72 389.258 1260.46 409.369 1261.93 426.537C1263.65 443.46 1266.83 458.052 1271.49 470.315C1276.4 482.333 1283.14 492.266 1291.73 500.114C1300.56 507.962 1311.96 514.094 1325.94 518.508C1339.92 522.923 1356.84 525.989 1376.71 527.705C1396.82 529.422 1420.61 530.281 1448.08 530.281ZM2223.22 519.244C2222.48 522.187 2216.96 529.545 2206.66 541.317C2199.3 550.147 2189.49 557.995 2177.23 564.862C2164.97 571.484 2148.53 576.634 2127.93 580.313C2107.58 584.237 2080.72 586.199 2047.37 586.199C2002.97 586.199 1965.08 583.869 1933.69 579.21C1902.3 574.795 1876.67 567.928 1856.8 558.608C1836.93 549.043 1822.34 536.903 1813.02 522.187C1803.95 507.472 1799.41 489.936 1799.41 469.579C1799.41 448.242 1801.86 430.216 1806.77 415.5C1811.92 400.539 1819.28 388.031 1828.84 377.976C1838.65 367.92 1850.42 360.072 1864.16 354.431C1877.89 348.79 1893.47 344.498 1910.88 341.555C1928.54 338.612 1947.79 336.773 1968.64 336.037C1989.49 335.301 2011.68 334.933 2035.23 334.933C2068.83 334.933 2096.91 336.405 2119.47 339.348C2142.04 342.046 2160.43 345.602 2174.65 350.016C2189.12 354.186 2200.04 358.723 2207.4 363.628C2214.75 368.533 2220.03 373.071 2223.22 377.24C2223.22 349.771 2221.99 326.349 2219.54 306.974C2217.33 287.598 2213.53 271.411 2208.13 258.413C2202.98 245.414 2196.24 235.113 2187.9 227.51C2179.56 219.662 2169.26 213.776 2157 209.852C2144.98 205.928 2130.88 203.475 2114.69 202.494C2098.5 201.268 2079.99 200.655 2059.14 200.655C2026.76 200.655 1999.91 201.513 1978.57 203.23C1957.23 204.701 1940.31 207.767 1927.8 212.427C1915.29 217.087 1906.47 223.586 1901.31 231.925C1896.16 240.018 1893.59 250.687 1893.59 263.931H1822.96C1822.96 241.613 1826.88 222.728 1834.73 207.277C1842.82 191.825 1856.06 179.317 1874.46 169.752C1893.1 159.942 1917.5 152.829 1947.67 148.415C1977.84 144 2014.99 141.793 2059.14 141.793C2102.3 141.793 2138.85 145.349 2168.77 152.462C2198.69 159.574 2222.85 172.082 2241.24 189.986C2259.88 207.89 2273.25 232.048 2281.34 262.46C2289.68 292.626 2293.85 330.886 2293.85 377.24V577.37H2223.22V519.244ZM2059.14 530.281C2090.29 530.281 2116.28 528.809 2137.13 525.866C2158.22 522.923 2175.14 518.508 2187.9 512.622C2200.65 506.736 2209.73 499.378 2215.12 490.549C2220.52 481.72 2223.22 471.419 2223.22 459.647C2223.22 447.874 2220.03 437.941 2213.65 429.848C2207.52 421.509 2197.1 414.764 2182.38 409.614C2167.91 404.464 2148.66 400.785 2124.62 398.577C2100.59 396.125 2070.91 394.899 2035.59 394.899C2000.28 394.899 1971.7 395.512 1949.88 396.738C1928.29 397.964 1911.62 400.785 1899.84 405.199C1888.07 409.614 1880.1 416.113 1875.93 424.697C1872.01 433.281 1870.04 444.931 1870.04 459.647C1870.04 474.362 1872.13 486.38 1876.3 495.699C1880.71 504.774 1889.54 511.886 1902.79 517.037C1916.03 522.187 1935.04 525.743 1959.81 527.705C1984.83 529.422 2017.93 530.281 2059.14 530.281ZM2376.62 366.203C2376.62 336.773 2378.1 310.775 2381.04 288.212C2383.98 265.648 2389.13 246.027 2396.49 229.35C2404.09 212.672 2414.15 198.815 2426.66 187.779C2439.41 176.497 2455.35 167.422 2474.48 160.555C2493.86 153.688 2516.79 148.783 2543.28 145.84C2569.76 142.897 2600.67 141.425 2635.98 141.425C2683.07 141.425 2721.82 144.368 2752.24 150.254C2782.65 155.895 2806.68 164.724 2824.34 176.742C2842 188.514 2854.26 203.598 2861.13 221.992C2868 240.141 2871.43 261.846 2871.43 287.108H2800.8C2800.8 278.033 2800.55 269.572 2800.06 261.724C2799.57 253.876 2797.73 246.763 2794.54 240.386C2791.6 234.01 2786.82 228.369 2780.2 223.464C2773.57 218.313 2764.13 214.021 2751.87 210.588C2739.6 207.154 2724.03 204.579 2705.15 202.862C2686.51 201.145 2663.45 200.287 2635.98 200.287C2604.59 200.287 2578.1 201.39 2556.52 203.598C2535.18 205.805 2517.52 209.484 2503.54 214.634C2489.57 219.539 2478.77 226.284 2471.17 234.868C2463.57 243.207 2458.05 253.508 2454.62 265.771C2451.18 278.033 2449.1 292.504 2448.36 309.181C2447.87 325.613 2447.63 344.621 2447.63 366.203C2447.63 387.296 2447.87 406.058 2448.36 422.49C2449.1 438.677 2451.18 452.902 2454.62 465.165C2458.05 477.182 2463.57 487.361 2471.17 495.699C2478.77 504.038 2489.57 510.783 2503.54 515.933C2517.52 521.084 2535.18 524.762 2556.52 526.97C2578.1 529.177 2604.59 530.281 2635.98 530.281C2663.45 530.281 2686.51 529.3 2705.15 527.338C2724.03 525.376 2739.6 522.555 2751.87 518.876C2764.13 515.197 2773.57 510.66 2780.2 505.264C2786.82 499.869 2791.6 493.737 2794.54 486.87C2797.73 479.758 2799.57 472.032 2800.06 463.693C2800.55 455.109 2800.8 445.912 2800.8 436.102H2871.43C2871.43 461.854 2868 484.172 2861.13 503.057C2854.26 521.942 2842 537.516 2824.34 549.779C2806.68 561.796 2782.65 570.748 2752.24 576.634C2721.82 582.521 2683.07 585.464 2635.98 585.464C2600.67 585.464 2569.76 583.992 2543.28 581.049C2516.79 578.106 2493.86 573.323 2474.48 566.701C2455.35 559.834 2439.41 550.882 2426.66 539.846C2414.15 528.809 2404.09 515.197 2396.49 499.01C2389.13 482.823 2383.98 463.816 2381.04 441.988C2378.1 419.915 2376.62 394.653 2376.62 366.203ZM3378.01 389.012C3378.01 425.065 3375.07 455.232 3369.18 479.512C3363.29 503.548 3353.36 522.8 3339.38 537.271C3325.65 551.741 3307.5 562.042 3284.93 568.173C3262.37 574.304 3234.53 577.37 3201.42 577.37C3169.3 577.37 3142.32 574.918 3120.49 570.012C3098.66 565.107 3081 556.768 3067.51 544.996C3054.03 533.224 3044.34 517.527 3038.45 497.907C3032.57 478.286 3029.62 453.76 3029.62 424.329V211.691H2942.43V153.565H3029.62V37.6811H3100.26V153.565H3366.24V211.691H3100.26V424.329C3100.26 447.874 3101.97 466.023 3105.41 478.777C3109.09 491.53 3114.85 500.85 3122.7 506.736C3130.55 512.622 3140.85 516.056 3153.6 517.037C3166.6 518.018 3182.42 518.508 3201.06 518.508C3215.77 518.508 3228.89 518.263 3240.42 517.773C3252.19 517.282 3262.37 515.81 3270.96 513.358C3279.78 510.66 3287.26 506.736 3293.4 501.586C3299.53 496.19 3304.43 488.71 3308.11 479.145C3312.04 469.579 3314.86 457.562 3316.57 443.092C3318.29 428.376 3319.15 410.35 3319.15 389.012H3378.01ZM3695.86 585.464C3648.77 585.464 3608.8 582.275 3575.93 575.899C3543.07 569.277 3516.34 557.995 3495.73 542.053C3475.13 526.111 3460.17 504.774 3450.85 478.041C3441.53 451.308 3436.87 417.708 3436.87 377.24C3436.87 330.886 3441.53 292.626 3450.85 262.46C3460.17 232.048 3475.13 207.89 3495.73 189.986C3516.34 172.082 3543.07 159.574 3575.93 152.462C3608.8 145.349 3648.77 141.793 3695.86 141.793C3729.46 141.793 3758.53 144.245 3783.05 149.151C3807.82 154.056 3828.92 161.168 3846.33 170.488C3863.99 179.808 3878.21 191.09 3889 204.334C3900.04 217.577 3908.62 231.557 3914.76 246.273C3921.13 260.743 3925.42 277.788 3927.63 297.409C3930.08 317.029 3931.31 337.754 3931.31 359.581L3925.42 383.126H3507.51C3507.51 415.5 3510.69 442.111 3517.07 462.958C3523.45 483.559 3533.99 498.642 3548.71 508.208C3563.42 517.773 3582.8 523.904 3606.84 526.602C3630.87 529.054 3660.55 530.281 3695.86 530.281C3728.24 530.281 3754.97 529.422 3776.06 527.705C3797.4 525.743 3814.32 522.187 3826.83 517.037C3839.34 511.886 3848.05 504.774 3852.95 495.699C3858.1 486.38 3860.68 474.362 3860.68 459.647H3931.31C3931.31 482.455 3927.26 501.953 3919.17 518.14C3911.32 534.082 3898.2 547.081 3879.81 557.136C3861.41 566.947 3837.13 574.059 3806.97 578.474C3777.04 583.134 3740.01 585.464 3695.86 585.464ZM3695.86 200.655C3672.32 200.655 3651.23 201.145 3632.59 202.126C3614.19 203.107 3598.01 205.315 3584.03 208.748C3570.29 211.937 3558.52 216.719 3548.71 223.096C3538.9 229.227 3530.93 236.585 3524.8 245.169C3518.91 253.508 3514.5 265.403 3511.55 280.854C3508.86 296.06 3507.51 314.454 3507.51 336.037H3860.68C3860.68 307.342 3857.61 284.901 3851.48 268.714C3845.35 252.281 3835.66 238.792 3822.42 228.246C3809.17 217.7 3792.13 210.465 3771.28 206.541C3750.43 202.617 3725.29 200.655 3695.86 200.655ZM4272.71 585.464C4225.62 585.464 4185.64 582.03 4152.78 575.163C4119.91 568.296 4093.18 556.523 4072.58 539.846C4051.98 523.168 4037.02 500.727 4027.7 472.523C4018.38 444.318 4013.72 408.878 4013.72 366.203C4013.72 322.057 4018.38 285.514 4027.7 256.573C4037.02 227.633 4051.98 204.701 4072.58 187.779C4093.18 170.856 4119.91 158.961 4152.78 152.094C4185.64 145.226 4225.62 141.793 4272.71 141.793C4306.06 141.793 4334.02 143.51 4356.59 146.943C4379.15 150.377 4397.55 154.669 4411.77 159.819C4426.24 164.97 4437.15 170.611 4444.51 176.742C4452.12 182.628 4457.63 188.147 4461.07 193.297V12.2969H4531.7V577.37H4461.07V514.462C4461.07 514.462 4455.18 521.451 4443.41 535.431C4433.11 545.487 4421.7 553.58 4409.2 559.712C4396.69 565.843 4379.15 571.729 4356.59 577.37C4334.02 582.766 4306.06 585.464 4272.71 585.464ZM4272.71 530.281C4296.25 530.281 4317.22 529.79 4335.62 528.809C4354.01 527.583 4370.2 525.13 4384.18 521.451C4398.16 517.773 4409.93 512.377 4419.5 505.264C4429.31 497.907 4437.28 488.219 4443.41 476.201C4449.54 464.184 4453.95 449.346 4456.65 431.687C4459.6 413.783 4461.07 392.323 4461.07 367.307C4461.07 341.31 4459.6 319.237 4456.65 301.088C4453.95 282.693 4449.54 267.365 4443.41 255.102C4437.28 242.594 4429.31 232.783 4419.5 225.671C4409.93 218.558 4398.16 213.163 4384.18 209.484C4370.2 205.56 4354.01 203.107 4335.62 202.126C4317.22 201.145 4296.25 200.655 4272.71 200.655C4245.24 200.655 4221.45 201.513 4201.34 203.23C4181.47 204.947 4164.55 208.012 4150.57 212.427C4136.59 216.842 4125.19 222.973 4116.36 230.821C4107.77 238.67 4101.03 248.725 4096.12 260.988C4091.46 273.251 4088.28 288.089 4086.56 305.502C4085.09 322.67 4084.35 342.904 4084.35 366.203C4084.35 389.258 4085.09 409.369 4086.56 426.537C4088.28 443.46 4091.46 458.052 4096.12 470.315C4101.03 482.333 4107.77 492.266 4116.36 500.114C4125.19 507.962 4136.59 514.094 4150.57 518.508C4164.55 522.923 4181.47 525.989 4201.34 527.705C4221.45 529.422 4245.24 530.281 4272.71 530.281ZM4767.15 207.277V577.37H4696.51V207.277H4625.88V153.565H4696.51V149.886C4696.51 121.191 4699.7 97.2786 4706.08 78.1486C4712.46 59.0185 4723 43.6899 4737.72 32.1628C4752.43 20.6357 4771.81 12.5422 4795.84 7.8823C4820.12 2.97715 4849.92 0.524578 4885.24 0.524578H4967.28V59.3864H4884.87C4862.55 59.3864 4843.91 59.8769 4828.95 60.8579C4813.99 61.8389 4801.85 65.1499 4792.53 70.7908C4783.46 76.4318 4776.96 85.3837 4773.03 97.6465C4769.11 109.909 4767.15 127.323 4767.15 149.886V153.565H4967.28V207.277H4767.15ZM5002.6 362.525C5002.6 319.114 5007.26 283.184 5016.58 254.734C5025.89 226.284 5040.86 203.72 5061.46 187.043C5082.06 170.365 5108.79 158.716 5141.66 152.094C5174.52 145.226 5214.5 141.793 5261.59 141.793C5308.68 141.793 5348.65 145.226 5381.52 152.094C5414.38 158.716 5441.12 170.365 5461.72 187.043C5482.32 203.72 5497.28 226.284 5506.6 254.734C5515.92 283.184 5520.58 319.114 5520.58 362.525C5520.58 405.935 5515.92 441.988 5506.6 470.683C5497.28 499.378 5482.32 522.187 5461.72 539.11C5441.12 556.033 5414.38 568.05 5381.52 575.163C5348.65 582.03 5308.68 585.464 5261.59 585.464C5214.5 585.464 5174.52 582.03 5141.66 575.163C5108.79 568.05 5082.06 556.033 5061.46 539.11C5040.86 522.187 5025.89 499.378 5016.58 470.683C5007.26 441.988 5002.6 405.935 5002.6 362.525ZM5073.23 362.525C5073.23 386.069 5074.09 406.548 5075.8 423.962C5077.52 441.375 5080.71 456.336 5085.37 468.844C5090.27 481.352 5097.02 491.53 5105.6 499.378C5114.19 507.226 5125.47 513.481 5139.45 518.14C5153.43 522.8 5170.35 525.989 5190.22 527.705C5210.33 529.422 5234.12 530.281 5261.59 530.281C5285.13 530.281 5306.1 529.79 5324.5 528.809C5343.14 527.583 5359.32 525.008 5373.06 521.084C5387.04 517.159 5398.93 511.641 5408.74 504.529C5418.55 497.171 5426.4 487.238 5432.29 474.73C5438.42 462.222 5442.83 446.893 5445.53 428.744C5448.47 410.35 5449.94 388.277 5449.94 362.525C5449.94 337.263 5448.47 315.803 5445.53 298.145C5442.83 280.241 5438.42 265.28 5432.29 253.262C5426.4 241.245 5418.55 231.802 5408.74 224.935C5398.93 217.823 5387.04 212.55 5373.06 209.116C5359.32 205.437 5343.14 203.107 5324.5 202.126C5306.1 201.145 5285.13 200.655 5261.59 200.655C5238.04 200.655 5216.95 201.145 5198.31 202.126C5179.92 203.107 5163.73 205.437 5149.75 209.116C5136.02 212.55 5124.24 217.823 5114.43 224.935C5104.62 231.802 5096.65 241.245 5090.52 253.262C5084.63 265.28 5080.22 280.241 5077.28 298.145C5074.58 315.803 5073.23 337.263 5073.23 362.525ZM5990 577.37L5820.04 400.049L5650.08 577.37H5555.9L5772.95 361.789L5566.2 153.565H5660.38L5821.88 317.275L5979.7 153.565H6073.88L5867.13 361.421L6084.18 577.37H5990Z" fill="url(#paint0_linear_637_5357)"></path>
<defs>
<linearGradient id="paint0_linear_637_5357" x1="3036.49" y1="-45.5674" x2="3036.49" y2="777.37" gradientUnits="userSpaceOnUse">
<stop stop-color="#E7523F"></stop>
<stop offset="1" stop-color="#AD110E"></stop>
</linearGradient>
</defs>
</svg>